<svg xmlns="http://www.w3.org/2000/svg" width="32" height="32" viewBox="0 0 24 24" fill="none" stroke="url(#gradient)" stroke-width="2" stroke-linecap="round" stroke-linejoin="round">
  <defs>
    <linearGradient id="gradient" x1="0%" y1="0%" x2="100%" y2="100%">
      <stop offset="0%" stop-color="#10B981" /> <!-- Green -->
      <stop offset="50%" stop-color="#3B82F6" /> <!-- Blue -->
      <stop offset="100%" stop-color="#9333EA" /> <!-- Purple -->
    </linearGradient>
  </defs>
  <path d="M19 5c-1.5 0-2.8 1.4-3 2-3.5-1.5-11-.3-11 5 0 1.8 0 3 2 4.5V20h4v-2h3v2h4v-4c1-.5 1.7-1 2-2h2v-4h-2c0-1-.5-1.5-1-2V5z"/>
  <path d="M2 9v1c0 1.1.9 2 2 2h1"/>
  <path d="M16 11h.01"/>
</svg>
